<?xml version="1.0" encoding="UTF-8"?>
<!DOCTYPE svg PUBLIC "-//W3C//DTD SVG 1.1//EN" "http://www.w3.org/Graphics/SVG/1.1/DTD/svg11.dtd">
<!-- Creator: CorelDRAW -->
<svg xmlns="http://www.w3.org/2000/svg" xml:space="preserve" width="150.64mm" height="22.4954mm" version="1.1" style="shape-rendering:geometricPrecision; text-rendering:geometricPrecision; image-rendering:optimizeQuality; fill-rule:evenodd; clip-rule:evenodd"
viewBox="0 0 2852.64 425.99"
 xmlns:xlink="http://www.w3.org/1999/xlink"
 xmlns:xodm="http://www.corel.com/coreldraw/odm/2003">
 <defs>
  <style type="text/css">
   <![CDATA[
    .fil27 {fill:#FBE9DD}
    .fil26 {fill:#FBEADE}
    .fil25 {fill:#FBEBE0}
    .fil24 {fill:#FBECE2}
    .fil23 {fill:#FBEDE3}
    .fil22 {fill:#FBEEE5}
    .fil21 {fill:#FBEEE6}
    .fil20 {fill:#FBEFE7}
    .fil19 {fill:#FBF0E9}
    .fil18 {fill:#FBF1EA}
    .fil17 {fill:#FBF2EB}
    .fil16 {fill:#FBF2EC}
    .fil15 {fill:#FBF3ED}
    .fil14 {fill:#FBF4EF}
    .fil13 {fill:#FBF4F0}
    .fil12 {fill:#FBF5F1}
    .fil11 {fill:#FBF5F2}
    .fil10 {fill:#FBF6F2}
    .fil9 {fill:#FBF6F3}
    .fil8 {fill:#FBF7F4}
    .fil7 {fill:#FBF7F5}
    .fil6 {fill:#FBF8F6}
    .fil5 {fill:#FBF9F7}
    .fil4 {fill:#FBF9F8}
    .fil3 {fill:#FBFAF9}
    .fil2 {fill:#FBFAFA}
    .fil1 {fill:#FBFBFA}
    .fil0 {fill:#FBFBFB}
    .fil54 {fill:#FCC49E}
    .fil53 {fill:#FCC6A1}
    .fil52 {fill:#FCC7A4}
    .fil51 {fill:#FCC9A7}
    .fil50 {fill:#FCCBAA}
    .fil49 {fill:#FCCCAC}
    .fil48 {fill:#FCCEAF}
    .fil47 {fill:#FCCFB2}
    .fil46 {fill:#FCD1B4}
    .fil45 {fill:#FCD2B7}
    .fil44 {fill:#FCD4B9}
    .fil43 {fill:#FCD5BC}
    .fil42 {fill:#FCD7BE}
    .fil41 {fill:#FCD8C0}
    .fil40 {fill:#FCDAC3}
    .fil39 {fill:#FCDBC5}
    .fil38 {fill:#FCDCC7}
    .fil37 {fill:#FCDEC9}
    .fil36 {fill:#FCDFCC}
    .fil35 {fill:#FCE0CE}
    .fil34 {fill:#FCE1D0}
    .fil33 {fill:#FCE3D2}
    .fil32 {fill:#FCE4D4}
    .fil31 {fill:#FCE5D6}
    .fil30 {fill:#FCE6D7}
    .fil29 {fill:#FCE7D9}
    .fil28 {fill:#FCE8DB}
    .fil74 {fill:#FD9E5F}
    .fil175 {fill:#FD9F60}
    .fil73 {fill:#FDA062}
    .fil149 {fill:#FDA163}
    .fil150 {fill:#FDA165}
    .fil72 {fill:#FDA265}
    .fil151 {fill:#FDA266}
    .fil152 {fill:#FDA367}
    .fil174 {fill:#FDA368}
    .fil71 {fill:#FDA469}
    .fil153 {fill:#FDA56A}
    .fil154 {fill:#FDA56B}
    .fil70 {fill:#FDA66C}
    .fil155 {fill:#FDA76E}
    .fil156 {fill:#FDA76F}
    .fil69 {fill:#FDA86F}
    .fil157 {fill:#FDA870}
    .fil158 {fill:#FDA971}
    .fil159 {fill:#FDA972}
    .fil68 {fill:#FDAA73}
    .fil160 {fill:#FDAA74}
    .fil161 {fill:#FDAB75}
    .fil162 {fill:#FDAB76}
    .fil67 {fill:#FDAC76}
    .fil163 {fill:#FDAC77}
    .fil164 {fill:#FDAD78}
    .fil165 {fill:#FDAD79}
    .fil66 {fill:#FDAE79}
    .fil166 {fill:#FDAE7A}
    .fil167 {fill:#FDAE7B}
    .fil168 {fill:#FDAF7B}
    .fil169 {fill:#FDAF7C}
    .fil65 {fill:#FDB07C}
    .fil170 {fill:#FDB07D}
    .fil171 {fill:#FDB07E}
    .fil172 {fill:#FDB17E}
    .fil173 {fill:#FDB17F}
    .fil64 {fill:#FDB280}
    .fil63 {fill:#FDB483}
    .fil62 {fill:#FDB686}
    .fil61 {fill:#FDB789}
    .fil60 {fill:#FDB98C}
    .fil59 {fill:#FDBB8F}
    .fil58 {fill:#FDBD92}
    .fil57 {fill:#FDBF95}
    .fil56 {fill:#FDC098}
    .fil55 {fill:#FDC29B}
    .fil178 {fill:#FE7921}
    .fil93 {fill:#FE7A21}
    .fil92 {fill:#FE7B24}
    .fil91 {fill:#FE7D27}
    .fil90 {fill:#FE7F2A}
    .fil124 {fill:#FE802D}
    .fil89 {fill:#FE812D}
    .fil125 {fill:#FE822F}
    .fil88 {fill:#FE8330}
    .fil126 {fill:#FE8332}
    .fil87 {fill:#FE8433}
    .fil127 {fill:#FE8534}
    .fil86 {fill:#FE8636}
    .fil128 {fill:#FE8637}
    .fil85 {fill:#FE883A}
    .fil129 {fill:#FE893C}
    .fil84 {fill:#FE8A3D}
    .fil130 {fill:#FE8B3E}
    .fil83 {fill:#FE8C40}
    .fil131 {fill:#FE8D43}
    .fil82 {fill:#FE8E44}
    .fil177 {fill:#FE8F45}
    .fil132 {fill:#FE8F46}
    .fil81 {fill:#FE9047}
    .fil133 {fill:#FE9149}
    .fil80 {fill:#FE924A}
    .fil134 {fill:#FE924C}
    .fil135 {fill:#FE934D}
    .fil79 {fill:#FE944E}
    .fil136 {fill:#FE944F}
    .fil137 {fill:#FE9550}
    .fil78 {fill:#FE9651}
    .fil138 {fill:#FE9652}
    .fil139 {fill:#FE9753}
    .fil77 {fill:#FE9854}
    .fil140 {fill:#FE9855}
    .fil141 {fill:#FE9956}
    .fil176 {fill:#FE9A57}
    .fil76 {fill:#FE9A58}
    .fil142 {fill:#FE9B59}
    .fil143 {fill:#FE9B5B}
    .fil75 {fill:#FE9C5B}
    .fil144 {fill:#FE9C5C}
    .fil145 {fill:#FE9D5E}
    .fil146 {fill:#FE9E5F}
    .fil147 {fill:#FE9F61}
    .fil148 {fill:#FEA062}
    .fil111 {fill:#FF6600}
    .fil179 {fill:#FF6600}
    .fil110 {fill:#FF6601}
    .fil109 {fill:#FF6701}
    .fil108 {fill:#FF6702}
    .fil107 {fill:#FF6803}
    .fil106 {fill:#FF6905}
    .fil105 {fill:#FF6A06}
    .fil104 {fill:#FF6A07}
    .fil112 {fill:#FF6B08}
    .fil103 {fill:#FF6B09}
    .fil113 {fill:#FF6C0A}
    .fil102 {fill:#FF6D0B}
    .fil114 {fill:#FF6D0C}
    .fil101 {fill:#FF6E0D}
    .fil115 {fill:#FF6E0E}
    .fil100 {fill:#FF6F0F}
    .fil116 {fill:#FF6F10}
    .fil99 {fill:#FF7011}
    .fil117 {fill:#FF7112}
    .fil98 {fill:#FF7214}
    .fil118 {fill:#FF7215}
    .fil97 {fill:#FF7316}
    .fil119 {fill:#FF7417}
    .fil96 {fill:#FF7519}
    .fil120 {fill:#FF751A}
    .fil95 {fill:#FF761C}
    .fil121 {fill:#FF771C}
    .fil94 {fill:#FF781E}
    .fil122 {fill:#FF781F}
    .fil123 {fill:#FF7A22}
    .fil180 {fill:#FEFEFE;fill-rule:nonzero}
    .fil181 {fill:url(#id1)}
    .fil182 {fill:url(#id2)}
    .fil185 {fill:url(#id3)}
    .fil184 {fill:url(#id4)}
    .fil183 {fill:url(#id5)}
   ]]>
  </style>
    <clipPath id="id0">
     <path d="M1073.28 307.01c1.82,10.42 5.7,18.06 16.15,25.1 12.53,8.45 29.13,8.54 43.7,8.54l107.46 0 0 81.08 -115.82 0c-40.21,0 -71.38,-4.69 -103.74,-29.43 -40.96,-31.32 -56.3,-79.21 -56.3,-129.41 0,-48.14 19.79,-100.83 60.94,-128.55 27.96,-18.83 60.17,-22.53 93.12,-22.53l121.8 0 0 81.08 -115.82 0c-32.38,0 -46.46,5.11 -51.38,33.04l167.2 0 0 81.08 -167.31 0zm313.7 -114.12l0 228.84 -99 0 0 -309.92 163.62 0c35.6,0 64.72,1.33 92.3,25.67l0.23 0.2c26.35,24.8 33.45,60.48 33.45,95.32l0 188.72 -99 0 0 -197.68c0,-24.04 -7.92,-31.16 -31.76,-31.16l-59.84 0zm574.2 -81.08l72.39 0c35.57,0 71.95,2.14 98.66,28.41 23.53,23.15 30.31,58.62 30.31,90.4l0 191.11 -99 0 0 -174.98c0,-11.86 0.01,-35.36 -8.49,-44.84 -8.04,-8.98 -27.87,-9.03 -38.81,-9.03l-55.06 0 0 228.84 -201.27 0c-28.31,0 -55.98,-4.38 -77.08,-24.77 -26.83,-25.92 -28.58,-58.54 -28.58,-94.05l0 -110.03 -50.79 0 0 -81.08 50.79 0 0 -107.55 99 0 0 107.55 74.09 0 0 81.08 -74.09 0 0 96.29c0,9.74 -0.97,32.72 4.9,41.23 5.85,8.49 18.59,10.25 28.05,10.25l75.97 0 0 -336.39 99 0 0 107.55zm447.11 228.84l0 -228.84 99 0 0 309.92 -166.61 0c-35.6,0 -64.72,-1.33 -92.31,-25.67l-0.23 -0.2c-26.35,-24.8 -33.45,-60.49 -33.45,-95.33l0 -188.71 99 0 0 196.48c0,19.18 8.58,32.36 28.77,32.36l65.81 0zm335.79 -1.13c7.98,-1.22 11.36,-5.85 11.36,-13.9 0,-6.5 -2.17,-13.75 -8.79,-16.23l-0.66 -0.25 -0.62 -0.34c-4.98,-2.77 -23.26,-2.39 -28.86,-2.39l-48.99 0c-29.09,0 -55.69,-1.19 -79.31,-19.92 -24.39,-18.65 -36.51,-50.17 -36.51,-80.37 0,-30.3 12.94,-59.93 37.15,-78.6l0.16 -0.12c19.88,-14.69 46.38,-15.59 70.16,-15.59l180.36 0 0 81.08 -151.67 0c-7.32,0 -24.31,-0.04 -30.8,3.73 -4.04,2.34 -3.94,8.41 -3.94,12.5 0,7.26 2.9,12.63 9.01,16.3 5.65,3.14 27.03,2.91 33.5,2.91l47.2 0c60.22,0 109.85,26.95 109.85,92.52 0,35.45 -18.86,77.54 -52.76,92.27 -17.56,8.32 -49.72,8.62 -69.04,8.62l-174.97 0 0 -81.08 151.67 0c12.02,0 24.53,-0.06 36.53,-1.13zm-2091.85 -68.96l0 151.16 -103.78 0 0 -417.47 204.25 0c39.49,0 91.15,1.72 124.87,24.98 31.67,21.84 48.31,57.55 48.31,95.63 0,52.53 -17.59,92.77 -60.44,115.93 40.47,20.81 54.54,62.72 56.84,110.51 1.57,19.5 2.3,39.09 9.02,57.75l4.56 12.68 -115.3 0 -2.16 -6.47c-2.8,-8.38 -4.02,-14.56 -5.18,-23.25l-0.02 -0.21c-1.31,-11.8 -2.7,-23.74 -3.6,-35.43 -7.38,-68.73 -30.08,-85.81 -98.72,-85.81l-58.65 0zm0 -90.04l109.43 0c34.79,0 51.48,-9.13 51.48,-45.5 0,-16.81 -6.09,-32.11 -22.64,-38.16 -8.56,-2.26 -20.09,-2.56 -28.83,-2.56l-109.43 0 0 86.22z"/>
    </clipPath>
  <radialGradient id="id1" gradientUnits="userSpaceOnUse" gradientTransform="matrix(0.999991 -0 -0 0.999991 0 0)" cx="213" cy="213" r="213" fx="213" fy="213">
   <stop offset="0" style="stop-opacity:1; stop-color:#373435"/>
   <stop offset="1" style="stop-opacity:1; stop-color:#FEFEFE"/>
  </radialGradient>
  <radialGradient id="id2" gradientUnits="userSpaceOnUse" gradientTransform="matrix(0.999991 -0 -0 0.999991 0 0)" cx="213" cy="213" r="207.32" fx="213" fy="213">
   <stop offset="0" style="stop-opacity:1; stop-color:#674290"/>
   <stop offset="1" style="stop-opacity:1; stop-color:#330066"/>
  </radialGradient>
  <radialGradient id="id3" gradientUnits="userSpaceOnUse" gradientTransform="matrix(1.01401 -0 -0 1.01401 -3 -3)" cx="217.14" cy="217.14" r="116.1" fx="217.14" fy="217.14">
   <stop offset="0" style="stop-opacity:1; stop-color:#F8A369"/>
   <stop offset="1" style="stop-opacity:1; stop-color:#FF6600"/>
  </radialGradient>
  <radialGradient id="id4" gradientUnits="userSpaceOnUse" gradientTransform="matrix(1.72408 -0 -0 1.72411 -153 -155)" xlink:href="#id1" cx="211.27" cy="213.73" r="71.58" fx="211.27" fy="213.73">
  </radialGradient>
  <radialGradient id="id5" gradientUnits="userSpaceOnUse" gradientTransform="matrix(1.66665 -0 -0 1.66663 -135 -132)" xlink:href="#id1" cx="202.38" cy="197.45" r="74.04" fx="202.38" fy="197.45">
  </radialGradient>
 </defs>
 <g id="Camada_x0020_1">
  <metadata id="CorelCorpID_0Corel-Layer"/>
  <g>
   <g style="clip-path:url(#id0)">
    <polygon class="fil0" points="2852.64,4.26 2852.64,6.71 548.44,6.71 548.44,4.26 "/>
    <polygon id="_1" class="fil0" points="2852.64,5.89 2852.64,8.34 548.44,8.34 548.44,5.89 "/>
    <polygon id="_2" class="fil0" points="2852.64,7.52 2852.64,9.97 548.44,9.97 548.44,7.52 "/>
    <polygon id="_3" class="fil0" points="2852.64,9.15 2852.64,11.6 548.44,11.6 548.44,9.15 "/>
    <polygon id="_4" class="fil0" points="2852.64,10.78 2852.64,13.23 548.44,13.23 548.44,10.78 "/>
    <polygon id="_5" class="fil1" points="2852.64,12.41 2852.64,14.86 548.44,14.86 548.44,12.41 "/>
    <polygon id="_6" class="fil1" points="2852.64,14.05 2852.64,16.49 548.44,16.49 548.44,14.05 "/>
    <polygon id="_7" class="fil2" points="2852.64,15.68 2852.64,18.12 548.44,18.12 548.44,15.68 "/>
    <polygon id="_8" class="fil2" points="2852.64,17.31 2852.64,19.75 548.44,19.75 548.44,17.31 "/>
    <polygon id="_9" class="fil3" points="2852.64,18.94 2852.64,21.38 548.44,21.38 548.44,18.94 "/>
    <polygon id="_10" class="fil3" points="2852.64,20.57 2852.64,23.01 548.44,23.01 548.44,20.57 "/>
    <polygon id="_11" class="fil4" points="2852.64,22.2 2852.64,24.64 548.44,24.64 548.44,22.2 "/>
    <polygon id="_12" class="fil4" points="2852.64,23.83 2852.64,26.28 548.44,26.28 548.44,23.83 "/>
    <polygon id="_13" class="fil5" points="2852.64,25.46 2852.64,27.91 548.44,27.91 548.44,25.46 "/>
    <polygon id="_14" class="fil5" points="2852.64,27.09 2852.64,29.54 548.44,29.54 548.44,27.09 "/>
    <polygon id="_15" class="fil6" points="2852.64,28.72 2852.64,31.17 548.44,31.17 548.44,28.72 "/>
    <polygon id="_16" class="fil6" points="2852.64,30.35 2852.64,32.8 548.44,32.8 548.44,30.35 "/>
    <polygon id="_17" class="fil7" points="2852.64,31.98 2852.64,34.43 548.44,34.43 548.44,31.98 "/>
    <polygon id="_18" class="fil8" points="2852.64,33.61 2852.64,36.06 548.44,36.06 548.44,33.61 "/>
    <polygon id="_19" class="fil9" points="2852.64,35.25 2852.64,37.69 548.44,37.69 548.44,35.25 "/>
    <polygon id="_20" class="fil10" points="2852.64,36.88 2852.64,39.32 548.44,39.32 548.44,36.88 "/>
    <polygon id="_21" class="fil11" points="2852.64,38.51 2852.64,40.95 548.44,40.95 548.44,38.51 "/>
    <polygon id="_22" class="fil12" points="2852.64,40.14 2852.64,42.58 548.44,42.58 548.44,40.14 "/>
    <polygon id="_23" class="fil13" points="2852.64,41.77 2852.64,44.21 548.44,44.21 548.44,41.77 "/>
    <polygon id="_24" class="fil14" points="2852.64,43.4 2852.64,45.84 548.44,45.84 548.44,43.4 "/>
    <polygon id="_25" class="fil15" points="2852.64,45.03 2852.64,47.47 548.44,47.47 548.44,45.03 "/>
    <polygon id="_26" class="fil16" points="2852.64,46.66 2852.64,49.11 548.44,49.11 548.44,46.66 "/>
    <polygon id="_27" class="fil17" points="2852.64,48.29 2852.64,50.74 548.44,50.74 548.44,48.29 "/>
    <polygon id="_28" class="fil18" points="2852.64,49.92 2852.64,52.37 548.44,52.37 548.44,49.92 "/>
    <polygon id="_29" class="fil19" points="2852.64,51.55 2852.64,54 548.44,54 548.44,51.55 "/>
    <polygon id="_30" class="fil20" points="2852.64,53.18 2852.64,55.63 548.44,55.63 548.44,53.18 "/>
    <polygon id="_31" class="fil21" points="2852.64,54.81 2852.64,57.26 548.44,57.26 548.44,54.81 "/>
    <polygon id="_32" class="fil22" points="2852.64,56.44 2852.64,58.89 548.44,58.89 548.44,56.44 "/>
    <polygon id="_33" class="fil23" points="2852.64,58.08 2852.64,60.52 548.44,60.52 548.44,58.08 "/>
    <polygon id="_34" class="fil24" points="2852.64,59.71 2852.64,62.15 548.44,62.15 548.44,59.71 "/>
    <polygon id="_35" class="fil25" points="2852.64,61.34 2852.64,63.78 548.44,63.78 548.44,61.34 "/>
    <polygon id="_36" class="fil26" points="2852.64,62.97 2852.64,65.41 548.44,65.41 548.44,62.97 "/>
    <polygon id="_37" class="fil27" points="2852.64,64.6 2852.64,67.04 548.44,67.04 548.44,64.6 "/>
    <polygon id="_38" class="fil28" points="2852.64,66.23 2852.64,68.67 548.44,68.67 548.44,66.23 "/>
    <polygon id="_39" class="fil29" points="2852.64,67.86 2852.64,70.31 548.44,70.31 548.44,67.86 "/>
    <polygon id="_40" class="fil30" points="2852.64,69.49 2852.64,71.94 548.44,71.94 548.44,69.49 "/>
    <polygon id="_41" class="fil31" points="2852.64,71.12 2852.64,73.57 548.44,73.57 548.44,71.12 "/>
    <polygon id="_42" class="fil32" points="2852.64,72.75 2852.64,75.2 548.44,75.2 548.44,72.75 "/>
    <polygon id="_43" class="fil33" points="2852.64,74.38 2852.64,76.83 548.44,76.83 548.44,74.38 "/>
    <polygon id="_44" class="fil34" points="2852.64,76.01 2852.64,78.46 548.44,78.46 548.44,76.01 "/>
    <polygon id="_45" class="fil35" points="2852.64,77.64 2852.64,80.09 548.44,80.09 548.44,77.64 "/>
    <polygon id="_46" class="fil36" points="2852.64,79.28 2852.64,81.72 548.44,81.72 548.44,79.28 "/>
    <polygon id="_47" class="fil37" points="2852.64,80.91 2852.64,83.35 548.44,83.35 548.44,80.91 "/>
    <polygon id="_48" class="fil38" points="2852.64,82.54 2852.64,84.98 548.44,84.98 548.44,82.54 "/>
    <polygon id="_49" class="fil39" points="2852.64,84.17 2852.64,86.61 548.44,86.61 548.44,84.17 "/>
    <polygon id="_50" class="fil40" points="2852.64,85.8 2852.64,88.24 548.44,88.24 548.44,85.8 "/>
    <polygon id="_51" class="fil41" points="2852.64,87.43 2852.64,89.87 548.44,89.87 548.44,87.43 "/>
    <polygon id="_52" class="fil42" points="2852.64,89.06 2852.64,91.5 548.44,91.5 548.44,89.06 "/>
    <polygon id="_53" class="fil43" points="2852.64,90.69 2852.64,93.14 548.44,93.14 548.44,90.69 "/>
    <polygon id="_54" class="fil44" points="2852.64,92.32 2852.64,94.77 548.44,94.77 548.44,92.32 "/>
    <polygon id="_55" class="fil45" points="2852.64,93.95 2852.64,96.4 548.44,96.4 548.44,93.95 "/>
    <polygon id="_56" class="fil46" points="2852.64,95.58 2852.64,98.03 548.44,98.03 548.44,95.58 "/>
    <polygon id="_57" class="fil47" points="2852.64,97.21 2852.64,99.66 548.44,99.66 548.44,97.21 "/>
    <polygon id="_58" class="fil48" points="2852.64,98.84 2852.64,101.29 548.44,101.29 548.44,98.84 "/>
    <polygon id="_59" class="fil49" points="2852.64,100.47 2852.64,102.92 548.44,102.92 548.44,100.47 "/>
    <polygon id="_60" class="fil50" points="2852.64,102.11 2852.64,104.55 548.44,104.55 548.44,102.11 "/>
    <polygon id="_61" class="fil51" points="2852.64,103.74 2852.64,106.18 548.44,106.18 548.44,103.74 "/>
    <polygon id="_62" class="fil52" points="2852.64,105.37 2852.64,107.81 548.44,107.81 548.44,105.37 "/>
    <polygon id="_63" class="fil53" points="2852.64,107 2852.64,109.44 548.44,109.44 548.44,107 "/>
    <polygon id="_64" class="fil54" points="2852.64,108.63 2852.64,111.07 548.44,111.07 548.44,108.63 "/>
    <polygon id="_65" class="fil55" points="2852.64,110.26 2852.64,112.7 548.44,112.7 548.44,110.26 "/>
    <polygon id="_66" class="fil56" points="2852.64,111.89 2852.64,114.34 548.44,114.34 548.44,111.89 "/>
    <polygon id="_67" class="fil57" points="2852.64,113.52 2852.64,115.97 548.44,115.97 548.44,113.52 "/>
    <polygon id="_68" class="fil58" points="2852.64,115.15 2852.64,117.6 548.44,117.6 548.44,115.15 "/>
    <polygon id="_69" class="fil59" points="2852.64,116.78 2852.64,119.23 548.44,119.23 548.44,116.78 "/>
    <polygon id="_70" class="fil60" points="2852.64,118.41 2852.64,120.86 548.44,120.86 548.44,118.41 "/>
    <polygon id="_71" class="fil61" points="2852.64,120.04 2852.64,122.49 548.44,122.49 548.44,120.04 "/>
    <polygon id="_72" class="fil62" points="2852.64,121.67 2852.64,124.12 548.44,124.12 548.44,121.67 "/>
    <polygon id="_73" class="fil63" points="2852.64,123.31 2852.64,125.75 548.44,125.75 548.44,123.31 "/>
    <polygon id="_74" class="fil64" points="2852.64,124.94 2852.64,127.38 548.44,127.38 548.44,124.94 "/>
    <polygon id="_75" class="fil65" points="2852.64,126.57 2852.64,129.01 548.44,129.01 548.44,126.57 "/>
    <polygon id="_76" class="fil66" points="2852.64,128.2 2852.64,130.64 548.44,130.64 548.44,128.2 "/>
    <polygon id="_77" class="fil67" points="2852.64,129.83 2852.64,132.27 548.44,132.27 548.44,129.83 "/>
    <polygon id="_78" class="fil68" points="2852.64,131.46 2852.64,133.9 548.44,133.9 548.44,131.46 "/>
    <polygon id="_79" class="fil69" points="2852.64,133.09 2852.64,135.53 548.44,135.53 548.44,133.09 "/>
    <polygon id="_80" class="fil70" points="2852.64,134.72 2852.64,137.17 548.44,137.17 548.44,134.72 "/>
    <polygon id="_81" class="fil71" points="2852.64,136.35 2852.64,138.8 548.44,138.8 548.44,136.35 "/>
    <polygon id="_82" class="fil72" points="2852.64,137.98 2852.64,140.43 548.44,140.43 548.44,137.98 "/>
    <polygon id="_83" class="fil73" points="2852.64,139.61 2852.64,142.06 548.44,142.06 548.44,139.61 "/>
    <polygon id="_84" class="fil74" points="2852.64,141.24 2852.64,143.69 548.44,143.69 548.44,141.24 "/>
    <polygon id="_85" class="fil75" points="2852.64,142.87 2852.64,145.32 548.44,145.32 548.44,142.87 "/>
    <polygon id="_86" class="fil76" points="2852.64,144.5 2852.64,146.95 548.44,146.95 548.44,144.5 "/>
    <polygon id="_87" class="fil77" points="2852.64,146.14 2852.64,148.58 548.44,148.58 548.44,146.14 "/>
    <polygon id="_88" class="fil78" points="2852.64,147.77 2852.64,150.21 548.44,150.21 548.44,147.77 "/>
    <polygon id="_89" class="fil79" points="2852.64,149.4 2852.64,151.84 548.44,151.84 548.44,149.4 "/>
    <polygon id="_90" class="fil80" points="2852.64,151.03 2852.64,153.47 548.44,153.47 548.44,151.03 "/>
    <polygon id="_91" class="fil81" points="2852.64,152.66 2852.64,155.1 548.44,155.1 548.44,152.66 "/>
    <polygon id="_92" class="fil82" points="2852.64,154.29 2852.64,156.73 548.44,156.73 548.44,154.29 "/>
    <polygon id="_93" class="fil83" points="2852.64,155.92 2852.64,158.37 548.44,158.37 548.44,155.92 "/>
    <polygon id="_94" class="fil84" points="2852.64,157.55 2852.64,160 548.44,160 548.44,157.55 "/>
    <polygon id="_95" class="fil85" points="2852.64,159.18 2852.64,161.63 548.44,161.63 548.44,159.18 "/>
    <polygon id="_96" class="fil86" points="2852.64,160.81 2852.64,163.26 548.44,163.26 548.44,160.81 "/>
    <polygon id="_97" class="fil87" points="2852.64,162.44 2852.64,164.89 548.44,164.89 548.44,162.44 "/>
    <polygon id="_98" class="fil88" points="2852.64,164.07 2852.64,166.52 548.44,166.52 548.44,164.07 "/>
    <polygon id="_99" class="fil89" points="2852.64,165.7 2852.64,168.15 548.44,168.15 548.44,165.7 "/>
    <polygon id="_100" class="fil90" points="2852.64,167.34 2852.64,169.78 548.44,169.78 548.44,167.34 "/>
    <polygon id="_101" class="fil91" points="2852.64,168.97 2852.64,171.41 548.44,171.41 548.44,168.97 "/>
    <polygon id="_102" class="fil92" points="2852.64,170.6 2852.64,173.04 548.44,173.04 548.44,170.6 "/>
    <polygon id="_103" class="fil93" points="2852.64,172.23 2852.64,174.67 548.44,174.67 548.44,172.23 "/>
    <polygon id="_104" class="fil94" points="2852.64,173.86 2852.64,176.3 548.44,176.3 548.44,173.86 "/>
    <polygon id="_105" class="fil95" points="2852.64,175.49 2852.64,177.93 548.44,177.93 548.44,175.49 "/>
    <polygon id="_106" class="fil96" points="2852.64,177.12 2852.64,179.56 548.44,179.56 548.44,177.12 "/>
    <polygon id="_107" class="fil97" points="2852.64,178.75 2852.64,181.2 548.44,181.2 548.44,178.75 "/>
    <polygon id="_108" class="fil98" points="2852.64,180.38 2852.64,182.83 548.44,182.83 548.44,180.38 "/>
    <polygon id="_109" class="fil99" points="2852.64,182.01 2852.64,184.46 548.44,184.46 548.44,182.01 "/>
    <polygon id="_110" class="fil100" points="2852.64,183.64 2852.64,186.09 548.44,186.09 548.44,183.64 "/>
    <polygon id="_111" class="fil101" points="2852.64,185.27 2852.64,187.72 548.44,187.72 548.44,185.27 "/>
    <polygon id="_112" class="fil102" points="2852.64,186.9 2852.64,189.35 548.44,189.35 548.44,186.9 "/>
    <polygon id="_113" class="fil103" points="2852.64,188.53 2852.64,190.98 548.44,190.98 548.44,188.53 "/>
    <polygon id="_114" class="fil104" points="2852.64,190.17 2852.64,192.61 548.44,192.61 548.44,190.17 "/>
    <polygon id="_115" class="fil105" points="2852.64,191.8 2852.64,194.24 548.44,194.24 548.44,191.8 "/>
    <polygon id="_116" class="fil106" points="2852.64,193.43 2852.64,195.87 548.44,195.87 548.44,193.43 "/>
    <polygon id="_117" class="fil107" points="2852.64,195.06 2852.64,197.5 548.44,197.5 548.44,195.06 "/>
    <polygon id="_118" class="fil108" points="2852.64,196.69 2852.64,199.13 548.44,199.13 548.44,196.69 "/>
    <polygon id="_119" class="fil109" points="2852.64,198.32 2852.64,200.76 548.44,200.76 548.44,198.32 "/>
    <polygon id="_120" class="fil110" points="2852.64,199.95 2852.64,202.4 548.44,202.4 548.44,199.95 "/>
    <polygon id="_121" class="fil111" points="2852.64,201.58 2852.64,204.03 548.44,204.03 548.44,201.58 "/>
    <polygon id="_122" class="fil111" points="2852.64,203.21 2852.64,205.66 548.44,205.66 548.44,203.21 "/>
    <polygon id="_123" class="fil111" points="2852.64,204.84 2852.64,207.29 548.44,207.29 548.44,204.84 "/>
    <polygon id="_124" class="fil111" points="2852.64,206.47 2852.64,208.92 548.44,208.92 548.44,206.47 "/>
    <polygon id="_125" class="fil111" points="2852.64,208.1 2852.64,210.55 548.44,210.55 548.44,208.1 "/>
    <polygon id="_126" class="fil111" points="2852.64,209.73 2852.64,212.18 548.44,212.18 548.44,209.73 "/>
    <polygon id="_127" class="fil111" points="2852.64,211.37 2852.64,213.81 548.44,213.81 548.44,211.37 "/>
    <polygon id="_128" class="fil111" points="2852.64,213 2852.64,215.44 548.44,215.44 548.44,213 "/>
    <polygon id="_129" class="fil111" points="2852.64,214.63 2852.64,217.07 548.44,217.07 548.44,214.63 "/>
    <polygon id="_130" class="fil111" points="2852.64,216.26 2852.64,218.7 548.44,218.7 548.44,216.26 "/>
    <polygon id="_131" class="fil111" points="2852.64,217.89 2852.64,220.33 548.44,220.33 548.44,217.89 "/>
    <polygon id="_132" class="fil111" points="2852.64,219.52 2852.64,221.96 548.44,221.96 548.44,219.52 "/>
    <polygon id="_133" class="fil111" points="2852.64,221.15 2852.64,223.59 548.44,223.59 548.44,221.15 "/>
    <polygon id="_134" class="fil111" points="2852.64,222.78 2852.64,225.23 548.44,225.23 548.44,222.78 "/>
    <polygon id="_135" class="fil110" points="2852.64,224.41 2852.64,226.86 548.44,226.86 548.44,224.41 "/>
    <polygon id="_136" class="fil109" points="2852.64,226.04 2852.64,228.49 548.44,228.49 548.44,226.04 "/>
    <polygon id="_137" class="fil108" points="2852.64,227.67 2852.64,230.12 548.44,230.12 548.44,227.67 "/>
    <polygon id="_138" class="fil107" points="2852.64,229.3 2852.64,231.75 548.44,231.75 548.44,229.3 "/>
    <polygon id="_139" class="fil106" points="2852.64,230.93 2852.64,233.38 548.44,233.38 548.44,230.93 "/>
    <polygon id="_140" class="fil105" points="2852.64,232.56 2852.64,235.01 548.44,235.01 548.44,232.56 "/>
    <polygon id="_141" class="fil112" points="2852.64,234.2 2852.64,236.64 548.44,236.64 548.44,234.2 "/>
    <polygon id="_142" class="fil113" points="2852.64,235.83 2852.64,238.27 548.44,238.27 548.44,235.83 "/>
    <polygon id="_143" class="fil114" points="2852.64,237.46 2852.64,239.9 548.44,239.9 548.44,237.46 "/>
    <polygon id="_144" class="fil115" points="2852.64,239.09 2852.64,241.53 548.44,241.53 548.44,239.09 "/>
    <polygon id="_145" class="fil116" points="2852.64,240.72 2852.64,243.16 548.44,243.16 548.44,240.72 "/>
    <polygon id="_146" class="fil117" points="2852.64,242.35 2852.64,244.79 548.44,244.79 548.44,242.35 "/>
    <polygon id="_147" class="fil118" points="2852.64,243.98 2852.64,246.43 548.44,246.43 548.44,243.98 "/>
    <polygon id="_148" class="fil119" points="2852.64,245.61 2852.64,248.06 548.44,248.06 548.44,245.61 "/>
    <polygon id="_149" class="fil120" points="2852.64,247.24 2852.64,249.69 548.44,249.69 548.44,247.24 "/>
    <polygon id="_150" class="fil121" points="2852.64,248.87 2852.64,251.32 548.44,251.32 548.44,248.87 "/>
    <polygon id="_151" class="fil122" points="2852.64,250.5 2852.64,252.95 548.44,252.95 548.44,250.5 "/>
    <polygon id="_152" class="fil123" points="2852.64,252.13 2852.64,254.58 548.44,254.58 548.44,252.13 "/>
    <polygon id="_153" class="fil92" points="2852.64,253.76 2852.64,256.21 548.44,256.21 548.44,253.76 "/>
    <polygon id="_154" class="fil91" points="2852.64,255.4 2852.64,257.84 548.44,257.84 548.44,255.4 "/>
    <polygon id="_155" class="fil90" points="2852.64,257.03 2852.64,259.47 548.44,259.47 548.44,257.03 "/>
    <polygon id="_156" class="fil124" points="2852.64,258.66 2852.64,261.1 548.44,261.1 548.44,258.66 "/>
    <polygon id="_157" class="fil125" points="2852.64,260.29 2852.64,262.73 548.44,262.73 548.44,260.29 "/>
    <polygon id="_158" class="fil126" points="2852.64,261.92 2852.64,264.36 548.44,264.36 548.44,261.92 "/>
    <polygon id="_159" class="fil127" points="2852.64,263.55 2852.64,265.99 548.44,265.99 548.44,263.55 "/>
    <polygon id="_160" class="fil128" points="2852.64,265.18 2852.64,267.62 548.44,267.62 548.44,265.18 "/>
    <polygon id="_161" class="fil85" points="2852.64,266.81 2852.64,269.26 548.44,269.26 548.44,266.81 "/>
    <polygon id="_162" class="fil129" points="2852.64,268.44 2852.64,270.89 548.44,270.89 548.44,268.44 "/>
    <polygon id="_163" class="fil130" points="2852.64,270.07 2852.64,272.52 548.44,272.52 548.44,270.07 "/>
    <polygon id="_164" class="fil83" points="2852.64,271.7 2852.64,274.15 548.44,274.15 548.44,271.7 "/>
    <polygon id="_165" class="fil131" points="2852.64,273.33 2852.64,275.78 548.44,275.78 548.44,273.33 "/>
    <polygon id="_166" class="fil82" points="2852.64,274.96 2852.64,277.41 548.44,277.41 548.44,274.96 "/>
    <polygon id="_167" class="fil132" points="2852.64,276.59 2852.64,279.04 548.44,279.04 548.44,276.59 "/>
    <polygon id="_168" class="fil81" points="2852.64,278.23 2852.64,280.67 548.44,280.67 548.44,278.23 "/>
    <polygon id="_169" class="fil133" points="2852.64,279.86 2852.64,282.3 548.44,282.3 548.44,279.86 "/>
    <polygon id="_170" class="fil80" points="2852.64,281.49 2852.64,283.93 548.44,283.93 548.44,281.49 "/>
    <polygon id="_171" class="fil134" points="2852.64,283.12 2852.64,285.56 548.44,285.56 548.44,283.12 "/>
    <polygon id="_172" class="fil135" points="2852.64,284.75 2852.64,287.19 548.44,287.19 548.44,284.75 "/>
    <polygon id="_173" class="fil136" points="2852.64,286.38 2852.64,288.82 548.44,288.82 548.44,286.38 "/>
    <polygon id="_174" class="fil137" points="2852.64,288.01 2852.64,290.46 548.44,290.46 548.44,288.01 "/>
    <polygon id="_175" class="fil138" points="2852.64,289.64 2852.64,292.09 548.44,292.09 548.44,289.64 "/>
    <polygon id="_176" class="fil139" points="2852.64,291.27 2852.64,293.72 548.44,293.72 548.44,291.27 "/>
    <polygon id="_177" class="fil140" points="2852.64,292.9 2852.64,295.35 548.44,295.35 548.44,292.9 "/>
    <polygon id="_178" class="fil141" points="2852.64,294.53 2852.64,296.98 548.44,296.98 548.44,294.53 "/>
    <polygon id="_179" class="fil76" points="2852.64,296.16 2852.64,298.61 548.44,298.61 548.44,296.16 "/>
    <polygon id="_180" class="fil142" points="2852.64,297.79 2852.64,300.24 548.44,300.24 548.44,297.79 "/>
    <polygon id="_181" class="fil143" points="2852.64,299.43 2852.64,301.87 548.44,301.87 548.44,299.43 "/>
    <polygon id="_182" class="fil144" points="2852.64,301.06 2852.64,303.5 548.44,303.5 548.44,301.06 "/>
    <polygon id="_183" class="fil145" points="2852.64,302.69 2852.64,305.13 548.44,305.13 548.44,302.69 "/>
    <polygon id="_184" class="fil146" points="2852.64,304.32 2852.64,306.76 548.44,306.76 548.44,304.32 "/>
    <polygon id="_185" class="fil147" points="2852.64,305.95 2852.64,308.39 548.44,308.39 548.44,305.95 "/>
    <polygon id="_186" class="fil148" points="2852.64,307.58 2852.64,310.02 548.44,310.02 548.44,307.58 "/>
    <polygon id="_187" class="fil149" points="2852.64,309.21 2852.64,311.65 548.44,311.65 548.44,309.21 "/>
    <polygon id="_188" class="fil150" points="2852.64,310.84 2852.64,313.29 548.44,313.29 548.44,310.84 "/>
    <polygon id="_189" class="fil151" points="2852.64,312.47 2852.64,314.92 548.44,314.92 548.44,312.47 "/>
    <polygon id="_190" class="fil152" points="2852.64,314.1 2852.64,316.55 548.44,316.55 548.44,314.1 "/>
    <polygon id="_191" class="fil71" points="2852.64,315.73 2852.64,318.18 548.44,318.18 548.44,315.73 "/>
    <polygon id="_192" class="fil153" points="2852.64,317.36 2852.64,319.81 548.44,319.81 548.44,317.36 "/>
    <polygon id="_193" class="fil154" points="2852.64,318.99 2852.64,321.44 548.44,321.44 548.44,318.99 "/>
    <polygon id="_194" class="fil70" points="2852.64,320.62 2852.64,323.07 548.44,323.07 548.44,320.62 "/>
    <polygon id="_195" class="fil155" points="2852.64,322.26 2852.64,324.7 548.44,324.7 548.44,322.26 "/>
    <polygon id="_196" class="fil156" points="2852.64,323.89 2852.64,326.33 548.44,326.33 548.44,323.89 "/>
    <polygon id="_197" class="fil157" points="2852.64,325.52 2852.64,327.96 548.44,327.96 548.44,325.52 "/>
    <polygon id="_198" class="fil158" points="2852.64,327.15 2852.64,329.59 548.44,329.59 548.44,327.15 "/>
    <polygon id="_199" class="fil159" points="2852.64,328.78 2852.64,331.22 548.44,331.22 548.44,328.78 "/>
    <polygon id="_200" class="fil68" points="2852.64,330.41 2852.64,332.85 548.44,332.85 548.44,330.41 "/>
    <polygon id="_201" class="fil160" points="2852.64,332.04 2852.64,334.49 548.44,334.49 548.44,332.04 "/>
    <polygon id="_202" class="fil161" points="2852.64,333.67 2852.64,336.12 548.44,336.12 548.44,333.67 "/>
    <polygon id="_203" class="fil162" points="2852.64,335.3 2852.64,337.75 548.44,337.75 548.44,335.3 "/>
    <polygon id="_204" class="fil163" points="2852.64,336.93 2852.64,339.38 548.44,339.38 548.44,336.93 "/>
    <polygon id="_205" class="fil163" points="2852.64,338.56 2852.64,341.01 548.44,341.01 548.44,338.56 "/>
    <polygon id="_206" class="fil164" points="2852.64,340.19 2852.64,342.64 548.44,342.64 548.44,340.19 "/>
    <polygon id="_207" class="fil165" points="2852.64,341.82 2852.64,344.27 548.44,344.27 548.44,341.82 "/>
    <polygon id="_208" class="fil66" points="2852.64,343.46 2852.64,345.9 548.44,345.9 548.44,343.46 "/>
    <polygon id="_209" class="fil166" points="2852.64,345.09 2852.64,347.53 548.44,347.53 548.44,345.09 "/>
    <polygon id="_210" class="fil167" points="2852.64,346.72 2852.64,349.16 548.44,349.16 548.44,346.72 "/>
    <polygon id="_211" class="fil168" points="2852.64,348.35 2852.64,350.79 548.44,350.79 548.44,348.35 "/>
    <polygon id="_212" class="fil169" points="2852.64,349.98 2852.64,352.42 548.44,352.42 548.44,349.98 "/>
    <polygon id="_213" class="fil169" points="2852.64,351.61 2852.64,354.05 548.44,354.05 548.44,351.61 "/>
    <polygon id="_214" class="fil170" points="2852.64,353.24 2852.64,355.68 548.44,355.68 548.44,353.24 "/>
    <polygon id="_215" class="fil170" points="2852.64,354.87 2852.64,357.32 548.44,357.32 548.44,354.87 "/>
    <polygon id="_216" class="fil171" points="2852.64,356.5 2852.64,358.95 548.44,358.95 548.44,356.5 "/>
    <polygon id="_217" class="fil171" points="2852.64,358.13 2852.64,360.58 548.44,360.58 548.44,358.13 "/>
    <polygon id="_218" class="fil172" points="2852.64,359.76 2852.64,362.21 548.44,362.21 548.44,359.76 "/>
    <polygon id="_219" class="fil172" points="2852.64,361.39 2852.64,363.84 548.44,363.84 548.44,361.39 "/>
    <polygon id="_220" class="fil173" points="2852.64,363.02 2852.64,365.47 548.44,365.47 548.44,363.02 "/>
    <polygon id="_221" class="fil173" points="2852.64,364.65 2852.64,367.1 548.44,367.1 548.44,364.65 "/>
    <polygon id="_222" class="fil173" points="2852.64,366.29 2852.64,368.73 548.44,368.73 548.44,366.29 "/>
    <polygon id="_223" class="fil173" points="2852.64,367.92 2852.64,370.36 548.44,370.36 548.44,367.92 "/>
    <polygon id="_224" class="fil173" points="2852.64,369.55 2852.64,371.99 548.44,371.99 548.44,369.55 "/>
    <polygon id="_225" class="fil173" points="2852.64,371.18 2852.64,373.62 548.44,373.62 548.44,371.18 "/>
    <polygon id="_226" class="fil170" points="2852.64,372.81 2852.64,375.25 548.44,375.25 548.44,372.81 "/>
    <polygon id="_227" class="fil66" points="2852.64,374.44 2852.64,376.88 548.44,376.88 548.44,374.44 "/>
    <polygon id="_228" class="fil161" points="2852.64,376.07 2852.64,378.52 548.44,378.52 548.44,376.07 "/>
    <polygon id="_229" class="fil156" points="2852.64,377.7 2852.64,380.15 548.44,380.15 548.44,377.7 "/>
    <polygon id="_230" class="fil174" points="2852.64,379.33 2852.64,381.78 548.44,381.78 548.44,379.33 "/>
    <polygon id="_231" class="fil175" points="2852.64,380.96 2852.64,383.41 548.44,383.41 548.44,380.96 "/>
    <polygon id="_232" class="fil176" points="2852.64,382.59 2852.64,385.04 548.44,385.04 548.44,382.59 "/>
    <polygon id="_233" class="fil79" points="2852.64,384.22 2852.64,386.67 548.44,386.67 548.44,384.22 "/>
    <polygon id="_234" class="fil177" points="2852.64,385.85 2852.64,388.3 548.44,388.3 548.44,385.85 "/>
    <polygon id="_235" class="fil129" points="2852.64,387.49 2852.64,389.93 548.44,389.93 548.44,387.49 "/>
    <polygon id="_236" class="fil87" points="2852.64,389.12 2852.64,391.56 548.44,391.56 548.44,389.12 "/>
    <polygon id="_237" class="fil90" points="2852.64,390.75 2852.64,393.19 548.44,393.19 548.44,390.75 "/>
    <polygon id="_238" class="fil178" points="2852.64,392.38 2852.64,394.82 548.44,394.82 548.44,392.38 "/>
    <polygon id="_239" class="fil96" points="2852.64,394.01 2852.64,396.45 548.44,396.45 548.44,394.01 "/>
    <polygon id="_240" class="fil117" points="2852.64,395.64 2852.64,398.08 548.44,398.08 548.44,395.64 "/>
    <polygon id="_241" class="fil114" points="2852.64,397.27 2852.64,399.71 548.44,399.71 548.44,397.27 "/>
    <polygon id="_242" class="fil104" points="2852.64,398.9 2852.64,401.35 548.44,401.35 548.44,398.9 "/>
    <polygon id="_243" class="fil107" points="2852.64,400.53 2852.64,402.98 548.44,402.98 548.44,400.53 "/>
    <polygon id="_244" class="fil110" points="2852.64,402.16 2852.64,404.61 548.44,404.61 548.44,402.16 "/>
    <polygon id="_245" class="fil111" points="2852.64,403.79 2852.64,406.24 548.44,406.24 548.44,403.79 "/>
    <polygon id="_246" class="fil111" points="2852.64,405.42 2852.64,407.87 548.44,407.87 548.44,405.42 "/>
    <polygon id="_247" class="fil111" points="2852.64,407.05 2852.64,409.5 548.44,409.5 548.44,407.05 "/>
    <polygon id="_248" class="fil111" points="2852.64,408.68 2852.64,411.13 548.44,411.13 548.44,408.68 "/>
    <polygon id="_249" class="fil111" points="2852.64,410.32 2852.64,412.76 548.44,412.76 548.44,410.32 "/>
    <polygon id="_250" class="fil111" points="2852.64,411.95 2852.64,414.39 548.44,414.39 548.44,411.95 "/>
    <polygon id="_251" class="fil111" points="2852.64,413.58 2852.64,416.02 548.44,416.02 548.44,413.58 "/>
    <polygon id="_252" class="fil111" points="2852.64,415.21 2852.64,417.65 548.44,417.65 548.44,415.21 "/>
    <polygon id="_253" class="fil111" points="2852.64,416.84 2852.64,419.28 548.44,419.28 548.44,416.84 "/>
    <polygon id="_254" class="fil111" points="2852.64,418.47 2852.64,420.91 548.44,420.91 548.44,418.47 "/>
    <polygon id="_255" class="fil179" points="2852.64,420.1 2852.64,421.73 548.44,421.73 548.44,420.1 "/>
   </g>
  </g>
  <path class="fil180" d="M1231.12 235.4l-168.49 0c3.58,-40.03 18.52,-51.98 62.14,-51.98l106.35 0 0 -62.14 -112.33 0c-39.44,0 -65.73,5.97 -87.83,20.91 -34.66,23.3 -56.76,69.91 -56.76,120.7 0,53.77 17.92,95.6 52.58,121.89 26.29,20.32 51.99,27.48 97.99,27.48l106.35 0 0 -62.14 -97.99 0c-25.1,0 -37.64,-2.39 -49,-10.16 -14.34,-9.56 -19.72,-20.32 -21.51,-42.42l168.49 0 0 -62.14zm66.32 -114.12l0 290.98 80.06 0 0 -228.84 69.31 0c29.28,0 41.23,11.35 41.23,40.63l0 188.21 80.06 0 0 -179.25c0,-40.63 -10.16,-69.31 -30.48,-88.43 -20.31,-17.92 -39.43,-23.3 -86.04,-23.3l-154.16 0zm654.26 -107.55l-80.06 0 0 336.39 -85.44 0c-16.73,0 -29.26,-4.79 -35.85,-14.34 -5.36,-7.78 -6.57,-16.73 -6.57,-46.6l0 -105.76 74.09 0 0 -62.14 -74.09 0 0 -107.55 -80.07 0 0 107.55 -50.79 0 0 62.14 50.79 0 0 119.5c0,47.2 6.24,68.44 25.69,87.24 15.8,15.26 37.04,22.11 70.5,22.11l111.73 0 80.06 0 0 -228.84 64.53 0c46.6,0 56.76,11.35 56.76,63.34l0 165.51 80.06 0 0 -181.64c0,-37.64 -9.56,-66.32 -27.48,-83.65 -19.12,-19.12 -43.62,-25.69 -92.01,-25.69l-81.86 0 0 -107.55zm466.05 336.39l-75.28 0c-23.9,0 -38.24,-15.53 -38.24,-41.82l0 -187.02 -80.06 0 0 179.25c0,40.63 10.16,69.31 30.47,88.43 20.32,17.92 39.43,23.3 86.04,23.3l157.14 0 0 -290.98 -80.06 0 0 228.84zm412.28 -228.84l-170.89 0c-33.46,0 -50.79,3.58 -64.53,13.74 -20.91,16.13 -33.46,42.42 -33.46,71.1 0,29.88 12.55,57.36 32.86,72.9 17.33,13.74 35.25,17.92 73.49,17.92l48.99 0c19.72,0 28.09,0.6 33.46,3.58 9.56,3.58 14.94,13.15 14.94,25.1 0,13.14 -7.17,21.51 -19.72,23.3 -6.57,0.59 -17.92,1.19 -37.64,1.19l-142.2 0 0 62.14 165.51 0c32.86,0 53.78,-2.39 65.13,-7.77 27.48,-11.95 47.2,-47.8 47.2,-83.65 0,-53.18 -36.45,-83.05 -100.38,-83.05l-47.2 0c-23.3,0 -32.86,-1.2 -38.24,-4.19 -8.96,-5.38 -13.74,-13.74 -13.74,-24.49 0,-20.91 8.36,-25.69 44.22,-25.69l142.2 0 0 -62.14zm-2187.28 139.81l68.12 0c75.28,0 100.38,22.11 108.14,94.4 0.6,7.77 2.39,24.5 3.59,35.25 1.2,8.96 1.79,12.55 4.78,21.51l95 0c-5.38,-14.94 -6.57,-23.3 -9.56,-60.35 -2.99,-62.14 -25.69,-97.99 -72.3,-110.54 51.38,-17.93 75.88,-55.57 75.88,-116.51 0,-36.45 -16.13,-68.71 -44.22,-87.83 -23.9,-16.73 -59.15,-23.3 -119.5,-23.3l-194.78 0 0 398.53 84.84 0 0 -151.16zm0 -71.1l0 -105.16 118.9 0c14.34,0 25.1,1.19 31.67,2.99 18.52,6.57 29.28,23.3 29.28,47.2 0,38.84 -17.33,54.97 -60.94,54.97l-118.9 0z"/>
  <g id="_2481154595392">
   <path class="fil181" d="M7.97 283.29l78.33 -78.33 25.84 25.85c6.19,6.19 16.34,6.19 22.53,0l96.14 -96.14c6.19,-6.19 6.19,-16.34 0,-22.53l-25.85 -25.84 78.33 -78.33c10.62,-10.62 27.97,-10.62 38.6,0l96.14 96.14c10.62,10.62 10.62,27.97 0,38.6l-78.33 78.33 -25.84 -25.85c-6.19,-6.19 -16.34,-6.19 -22.53,0l-96.14 96.14c-6.19,6.19 -6.19,16.34 0,22.53l25.85 25.84 -78.33 78.33c-10.62,10.62 -27.97,10.62 -38.6,0l-96.14 -96.14c-10.62,-10.62 -10.62,-27.97 0,-38.6z"/>
   <path class="fil182" d="M11.98 287.31l70.3 -70.29 21.83 21.83c10.62,10.62 27.98,10.62 38.6,0l96.14 -96.14c10.62,-10.62 10.62,-27.97 0,-38.6l-21.83 -21.83 70.29 -70.3c8.4,-8.41 22.16,-8.41 30.56,0l96.14 96.14c8.41,8.4 8.41,22.16 0,30.56l-70.3 70.29 -21.83 -21.83c-10.62,-10.62 -27.97,-10.62 -38.6,0l-96.14 96.14c-10.62,10.62 -10.62,27.97 0,38.6l21.83 21.83 -70.29 70.3c-8.4,8.41 -22.16,8.41 -30.56,0l-96.14 -96.14c-8.41,-8.4 -8.41,-22.16 0,-30.56z"/>
   <path class="fil183" d="M7.97 104.11l96.14 -96.14c10.62,-10.62 27.97,-10.62 38.6,0l96.14 96.14c10.62,10.62 10.62,27.97 0,38.6l-96.14 96.14c-10.62,10.62 -27.97,10.62 -38.6,0l-96.14 -96.14c-10.62,-10.62 -10.62,-27.97 0,-38.6z"/>
   <path class="fil184" d="M187.15 283.29l96.14 -96.14c10.62,-10.62 27.97,-10.62 38.6,0l96.14 96.14c10.62,10.62 10.62,27.97 0,38.6l-96.14 96.14c-10.62,10.62 -27.97,10.62 -38.6,0l-96.14 -96.14c-10.62,-10.62 -10.62,-27.98 0,-38.6z"/>
   <path class="fil185" d="M191.17 287.31l23.45 -23.45 -52.48 -52.48 -23.45 23.45c-8.4,8.41 -22.16,8.41 -30.56,0l-96.14 -96.14c-8.41,-8.4 -8.41,-22.16 0,-30.56l96.14 -96.14c8.4,-8.41 22.16,-8.41 30.56,0l96.14 96.14c8.41,8.4 8.41,22.16 0,30.56l-23.45 23.45 52.48 52.48 23.45 -23.45c8.4,-8.41 22.16,-8.41 30.56,0l96.14 96.14c8.41,8.4 8.41,22.16 0,30.56l-96.14 96.14c-8.4,8.41 -22.16,8.41 -30.56,0l-96.14 -96.14c-8.41,-8.4 -8.41,-22.16 0,-30.56z"/>
  </g>
 </g>
</svg>
