<?xml version="1.0" encoding="UTF-8"?>
<!DOCTYPE svg PUBLIC "-//W3C//DTD SVG 1.1//EN" "http://www.w3.org/Graphics/SVG/1.1/DTD/svg11.dtd">
<!-- Creator: CorelDRAW -->
<?xml-stylesheet href="logo-horizontal-p-fundo-claro.css" type="text/css"?>
<svg xmlns="http://www.w3.org/2000/svg" xml:space="preserve" width="194px" height="28px" version="1.1" style="shape-rendering:geometricPrecision; text-rendering:geometricPrecision; image-rendering:optimizeQuality; fill-rule:evenodd; clip-rule:evenodd"
viewBox="0 0 8.11 1.17"
 xmlns:xlink="http://www.w3.org/1999/xlink"
 xmlns:xodm="http://www.corel.com/coreldraw/odm/2003">
 <g id="Camada_x0020_1">
  <metadata id="CorelCorpID_0Corel-Layer"/>
  <path class="fil0" d="M0.39 0.55l0.15 -0.16c0.12,-0.13 0.18,-0.13 0.32,0.01l0.25 0.24 -0.03 0.03c-0.13,0.14 -0.19,0.18 -0.27,0.19 -0.07,0 -0.1,0.01 -0.28,-0.17l-0.14 -0.14zm0.93 -0.12l-0.3 -0.29c-0.1,-0.09 -0.2,-0.14 -0.29,-0.14 -0.1,0 -0.18,0.05 -0.31,0.18l-0.2 0.21 -0.22 0.22 0.31 0.3c0.11,0.11 0.21,0.18 0.27,0.22 0.13,0.06 0.29,0.05 0.42,-0.03 0.07,-0.04 0.11,-0.07 0.25,-0.22l0.26 -0.27 -0.19 -0.18z"/>
  <g id="_2264559376640">
   <path class="fil1" d="M1.83 0.05l0 0.59c0,0.1 0.01,0.19 0.03,0.24 0.03,0.1 0.11,0.17 0.21,0.2 0.06,0.01 0.09,0.01 0.24,0.01l0.24 0 0 -0.18 -0.22 0c-0.14,0 -0.18,-0.01 -0.23,-0.05 -0.04,-0.03 -0.04,-0.04 -0.05,-0.22l0 -0.59 -0.22 0zm0.97 0.59l0 0.45 0.23 0 0 -0.44 0.4 -0.6 -0.26 0 -0.25 0.41 -0.24 -0.41 -0.26 0 0.38 0.59zm0.7 0.45l0.52 0c0.16,0 0.22,0 0.27,-0.04 0.08,-0.05 0.14,-0.15 0.14,-0.26 0,-0.09 -0.04,-0.18 -0.08,-0.23 -0.06,-0.06 -0.15,-0.09 -0.3,-0.09l-0.17 0c-0.07,0 -0.1,0 -0.13,-0.01 -0.04,-0.02 -0.06,-0.06 -0.06,-0.11 0,-0.05 0.03,-0.09 0.07,-0.1 0.04,-0.01 0.04,-0.01 0.14,-0.01l0.47 0 0 -0.19 -0.52 0c-0.12,0 -0.17,0.01 -0.22,0.02 -0.11,0.04 -0.18,0.16 -0.18,0.29 0,0.09 0.03,0.18 0.1,0.23 0.05,0.05 0.13,0.07 0.26,0.07l0.19 0c0.05,0 0.09,0 0.11,0.02 0.04,0.02 0.07,0.06 0.07,0.11 0,0.04 -0.02,0.07 -0.05,0.09 -0.03,0.02 -0.07,0.03 -0.16,0.03l-0.47 0 0 0.18zm1.31 -0.85l0 0.85 0.22 0 0 -0.85 0.35 0 0 -0.19 -0.9 0 0 0.19 0.33 0z"/>
   <path class="fil2" d="M5.7 0.05l-0.21 0 0 1.04 0.21 0 0 -0.59 0.17 0c0.12,0 0.15,0.03 0.15,0.16l0 0.43 0.2 0 0 -0.47c0,-0.1 -0.02,-0.17 -0.07,-0.22 -0.05,-0.05 -0.11,-0.07 -0.24,-0.07l-0.21 0 0 -0.28zm1.22 0.88l-0.2 0c-0.06,0 -0.1,-0.04 -0.1,-0.11l0 -0.49 -0.21 0 0 0.47c0,0.11 0.03,0.18 0.08,0.23 0.05,0.05 0.1,0.06 0.23,0.06l0.41 0 0 -0.76 -0.21 0 0 0.6zm0.62 -0.6l0 -0.28 -0.21 0 0 1.04 0.35 0c0.13,0 0.19,-0.01 0.26,-0.05 0.11,-0.07 0.17,-0.19 0.17,-0.34 0,-0.1 -0.03,-0.19 -0.08,-0.25 -0.07,-0.08 -0.16,-0.12 -0.3,-0.12l-0.19 0zm0 0.17l0.16 0c0.13,0 0.2,0.07 0.2,0.21 0,0.14 -0.08,0.22 -0.2,0.22l-0.16 0 0 -0.43z"/>
  </g>
 </g>
</svg>
